<?xml version="1.0" encoding="UTF-8" standalone="no"?>
<svg
   xmlns:dc="http://purl.org/dc/elements/1.1/"
   xmlns:cc="http://creativecommons.org/ns#"
   xmlns:rdf="http://www.w3.org/1999/02/22-rdf-syntax-ns#"
   xmlns:svg="http://www.w3.org/2000/svg"
   xmlns="http://www.w3.org/2000/svg"
   xmlns:sodipodi="http://sodipodi.sourceforge.net/DTD/sodipodi-0.dtd"
   xmlns:inkscape="http://www.inkscape.org/namespaces/inkscape"
   width="1926.0548"
   height="317.22986"
   viewBox="0 0 1540.8439 253.78388"
   version="1.1"
   id="svg2"
   inkscape:version="0.92.2 (5c3e80d, 2017-08-06)"
   sodipodi:docname="centricular.svg"
   inkscape:export-filename="/home/jan/work/centricular/templates/assets/centricular-logo-with-text-outline-1400px.png"
   inkscape:export-xdpi="397.18832"
   inkscape:export-ydpi="397.18832">
  <metadata
     id="metadata45">
    <rdf:RDF>
      <cc:Work
         rdf:about="">
        <dc:format>image/svg+xml</dc:format>
        <dc:type
           rdf:resource="http://purl.org/dc/dcmitype/StillImage" />
        <dc:title />
      </cc:Work>
    </rdf:RDF>
  </metadata>
  <sodipodi:namedview
     pagecolor="#ffffff"
     bordercolor="#666666"
     borderopacity="1"
     objecttolerance="10"
     gridtolerance="10"
     guidetolerance="10"
     inkscape:pageopacity="0"
     inkscape:pageshadow="2"
     inkscape:window-width="2560"
     inkscape:window-height="1311"
     id="namedview43"
     showgrid="false"
     units="mm"
     inkscape:zoom="0.7375"
     inkscape:cx="974.71324"
     inkscape:cy="158.6149"
     inkscape:window-x="0"
     inkscape:window-y="55"
     inkscape:window-maximized="1"
     inkscape:current-layer="svg2"
     fit-margin-top="2"
     fit-margin-left="2"
     fit-margin-right="2"
     fit-margin-bottom="2" />
  <defs
     id="defs4">
    <clipPath
       id="clip1">
      <path
         d="m 6,6 221,0 0,244 -221,0 z"
         id="path7"
         inkscape:connector-curvature="0" />
    </clipPath>
    <clipPath
       id="clip2">
      <path
         d="M 249.22266,128 C 249.22266,194.94922 194.94922,249.22266 128,249.22266 61.050781,249.22266 6.777344,194.94922 6.777344,128 6.777344,61.050781 61.050781,6.777344 128,6.777344 194.94922,6.777344 249.22266,61.050781 249.22266,128"
         id="path10"
         inkscape:connector-curvature="0" />
    </clipPath>
    <clipPath
       id="clip3">
      <path
         d="m 86,29 162,0 0,183 -162,0 z"
         id="path13"
         inkscape:connector-curvature="0" />
    </clipPath>
    <clipPath
       id="clip4">
      <path
         d="M 249.22266,128 C 249.22266,194.94922 194.94922,249.22266 128,249.22266 61.050781,249.22266 6.777344,194.94922 6.777344,128 6.777344,61.050781 61.050781,6.777344 128,6.777344 194.94922,6.777344 249.22266,61.050781 249.22266,128"
         id="path16"
         inkscape:connector-curvature="0" />
    </clipPath>
    <clipPath
       id="clip5">
      <path
         d="m 72,67 117,0 0,117 -117,0 z"
         id="path19"
         inkscape:connector-curvature="0" />
    </clipPath>
    <clipPath
       id="clip6">
      <path
         d="M 249.22266,128 C 249.22266,194.94922 194.94922,249.22266 128,249.22266 61.050781,249.22266 6.777344,194.94922 6.777344,128 6.777344,61.050781 61.050781,6.777344 128,6.777344 194.94922,6.777344 249.22266,61.050781 249.22266,128"
         id="path22"
         inkscape:connector-curvature="0" />
    </clipPath>
  </defs>
  <g
     id="g25"
     clip-rule="nonzero"
     clip-path="url(#clip1)"
     transform="translate(-1.1080525,-1.1080603)">
    <g
       id="g27"
       clip-rule="nonzero"
       clip-path="url(#clip2)">
      <path
         inkscape:connector-curvature="0"
         id="path29"
         d="M 226.07422,199.25 C 198.72656,236.89062 152.24609,255.5625 106.45703,247.29297 60.667969,239.02344 23.652344,205.27734 11.199219,160.44531 -1.253906,115.61328 13.054688,67.609375 48.015625,36.910156 82.980469,6.210938 132.42969,-1.769531 175.27344,16.378906 139.57422,9.902344 103.05078,22.242188 78.59375,49.042969 54.136719,75.847656 45.183594,113.34766 54.894531,148.30469 c 9.714844,34.96093 36.722657,62.47265 71.499999,72.82031 34.77734,10.35156 72.43359,2.08594 99.67969,-21.875"
         style="fill:#de0021;fill-opacity:1;fill-rule:nonzero;stroke:none" />
    </g>
  </g>
  <g
     id="g31"
     clip-rule="nonzero"
     clip-path="url(#clip3)"
     transform="translate(-1.1080525,-1.1080603)">
    <g
       id="g33"
       clip-rule="nonzero"
       clip-path="url(#clip4)">
      <path
         inkscape:connector-curvature="0"
         id="path35"
         d="m 86.578125,61.9375 c 22.886715,-27.5 59.777345,-39.023438 94.246095,-29.433594 34.47265,9.589844 60.11328,38.503906 65.51172,73.875004 5.39843,35.36718 -10.44922,70.61718 -40.49219,90.05078 -30.03906,19.43359 -68.6875,19.4414 -98.73437,0.0195 25.92187,9.75 55.07031,5.02344 76.58593,-12.42188 21.51172,-17.4414 32.16406,-44.98047 27.98438,-72.35937 C 207.5,84.289062 189.11719,61.175781 163.38281,50.945312 137.64453,40.714844 108.41406,44.898438 86.578125,61.9375"
         style="fill:#51ba2b;fill-opacity:1;fill-rule:nonzero;stroke:none" />
    </g>
  </g>
  <g
     id="g37"
     clip-rule="nonzero"
     clip-path="url(#clip5)"
     transform="translate(-1.1080525,-1.1080603)">
    <g
       id="g39"
       clip-rule="nonzero"
       clip-path="url(#clip6)">
      <path
         inkscape:connector-curvature="0"
         id="path41"
         d="M 94.425781,80.109375 C 115.43359,63.238281 145.29297,63.0625 166.5,79.683594 c 21.20312,16.625 28.16016,45.664066 16.79297,70.089846 -11.3711,24.42968 -38.06641,37.80468 -64.44141,32.28515 -26.371091,-5.51953 -45.464841,-28.48047 -46.082029,-55.41406 4.730469,14.91016 18.125,25.39063 33.734379,26.39453 15.61328,1.00391 30.24218,-7.67187 36.83984,-21.85547 C 149.94531,117 147.16797,100.21875 136.34766,88.921875 125.52344,77.625 108.87891,74.125 94.425781,80.109375"
         style="fill:#4a4294;fill-opacity:1;fill-rule:nonzero;stroke:none" />
    </g>
  </g>
  <g
     style="font-size:263.20001221px;font-style:normal;font-weight:normal;line-height:125%;letter-spacing:-0.44000167px;word-spacing:0px;fill:#cccccc;fill-opacity:1;stroke:none;font-family:Sans"
     id="text3049">
    <path
       d="m 395.29341,188.19905 c -7.17721,3.72396 -14.65898,6.53386 -22.44531,8.42969 -7.78657,1.89583 -15.91156,2.84375 -24.375,2.84375 -25.25528,0 -45.26307,-7.04166 -60.02344,-21.125 -14.76043,-14.15101 -22.14063,-33.31245 -22.14062,-57.48438 -10e-6,-24.23948 7.38019,-43.400919 22.14062,-57.484372 14.76037,-14.150894 34.76816,-21.226408 60.02344,-21.226562 8.46344,1.54e-4 16.58843,0.94807 24.375,2.84375 7.78633,1.895983 15.2681,4.705876 22.44531,8.429687 l 0,31.382813 c -7.24492,-4.942592 -14.38814,-8.564984 -21.42969,-10.867188 -7.04177,-2.301958 -14.45583,-3.452999 -22.24218,-3.453125 -13.948,1.26e-4 -24.91674,4.468872 -32.90625,13.40625 -7.98964,8.937604 -11.98443,21.260507 -11.98438,36.968747 -5e-5,15.64069 3.99474,27.92974 11.98438,36.86719 7.98951,8.93753 18.95825,13.40628 32.90625,13.40625 7.78635,3e-5 15.20041,-1.15101 22.24218,-3.45312 7.04155,-2.30206 14.18477,-5.92445 21.42969,-10.86719 l 0,31.38281"
       style="font-size:208px;font-variant:normal;font-weight:bold;font-stretch:normal;letter-spacing:-2.24000001px;font-family:DejaVu Sans;-inkscape-font-specification:DejaVu Sans Bold;fill:#cccccc"
       id="path3161" />
    <path
       d="m 537.47528,139.34749 0,10.35937 -85.00781,0 c 0.88016,8.53129 3.96089,14.92972 9.24219,19.19532 5.28119,4.26564 12.66139,6.39845 22.14062,6.39843 7.65096,2e-5 15.47126,-1.11716 23.46094,-3.35156 8.05718,-2.30206 16.31759,-5.75518 24.78125,-10.35937 l 0,28.03125 c -8.59908,3.25 -17.19803,5.6875 -25.79688,7.3125 -8.59905,1.6927 -17.198,2.53906 -25.79687,2.53906 -20.58339,0 -36.59639,-5.21354 -48.03906,-15.64063 -11.37502,-10.49477 -17.06251,-25.18746 -17.0625,-44.07812 -10e-6,-18.55201 5.58592,-33.14314 16.75781,-43.773439 11.23954,-10.630097 26.67703,-15.945196 46.3125,-15.945313 17.87491,1.17e-4 32.16135,5.382924 42.85937,16.148438 10.7655,10.765714 16.14831,25.153724 16.14844,43.164064 m -37.375,-12.08594 c -9e-5,-6.90617 -2.03134,-12.45825 -6.09375,-16.65625 -3.99487,-4.26553 -9.24227,-6.39834 -15.74219,-6.39844 -7.04173,10e-5 -12.76308,1.99749 -17.16406,5.99219 -4.40109,3.92717 -7.14328,9.61466 -8.22656,17.0625 l 47.22656,0"
       style="font-size:208px;font-variant:normal;font-weight:bold;font-stretch:normal;letter-spacing:-2.24000001px;font-family:DejaVu Sans;-inkscape-font-specification:DejaVu Sans Bold;fill:#cccccc"
       id="path3163" />
    <path
       d="m 677.01653,127.26155 0,69.26563 -36.5625,0 0,-11.27344 0,-41.74219 c -10e-5,-9.81764 -0.23708,-16.58847 -0.71094,-20.3125 -0.40635,-3.72388 -1.15114,-6.46607 -2.23438,-8.22656 -1.42196,-2.36971 -3.35165,-4.19783 -5.78906,-5.48438 -2.43758,-1.35407 -5.21362,-2.03116 -8.32812,-2.03125 -7.58341,9e-5 -13.54174,2.9454 -17.875,8.83594 -4.33339,5.82299 -6.50006,13.91413 -6.5,24.27344 l 0,55.96094 -36.35938,0 0,-113.750004 36.35938,0 0,16.65625 c 5.48431,-6.635313 11.30722,-11.510308 17.46875,-14.625 6.16138,-3.182177 12.96606,-4.773321 20.41406,-4.773438 13.13531,1.17e-4 23.08842,4.028759 29.85937,12.085938 6.83842,8.057384 10.25768,19.770914 10.25782,35.140624"
       style="font-size:208px;font-variant:normal;font-weight:bold;font-stretch:normal;letter-spacing:-2.24000001px;font-family:DejaVu Sans;-inkscape-font-specification:DejaVu Sans Bold;fill:#cccccc"
       id="path3165" />
    <path
       d="m 748.40935,50.480301 0,32.296875 37.47656,0 0,26.000004 -37.47656,0 0,48.24218 c -6e-5,5.28129 1.04942,8.86983 3.14844,10.76563 2.09889,1.82815 6.26295,2.74221 12.49218,2.74219 l 18.6875,0 0,26 -31.17968,0 c -14.35422,0 -24.54431,-2.97917 -30.57032,-8.9375 -5.95835,-6.02603 -8.93752,-16.21612 -8.9375,-30.57032 l 0,-48.24218 -18.07812,0 0,-26.000004 18.07812,0 0,-32.296875 36.35938,0"
       style="font-size:208px;font-variant:normal;font-weight:bold;font-stretch:normal;letter-spacing:-2.24000001px;font-family:DejaVu Sans;-inkscape-font-specification:DejaVu Sans Bold;fill:#cccccc"
       id="path3167" />
    <path
       d="m 890.48964,113.75374 c -3.18239,-1.4895 -6.36468,-2.57283 -9.54688,-3.25 -3.11467,-0.74471 -6.2631,-1.1171 -9.44531,-1.11719 -9.34382,9e-5 -16.55475,3.01311 -21.63281,9.03906 -5.01047,5.95841 -7.51568,14.5235 -7.51563,25.69532 l 0,52.40625 -36.35937,0 0,-113.750004 36.35937,0 0,18.687504 c 4.67182,-7.447818 10.02077,-12.86448 16.04688,-16.250004 6.09367,-3.45301 13.37231,-5.179571 21.83594,-5.179688 1.21865,1.17e-4 2.53897,0.06782 3.96093,0.203125 1.42178,0.06782 3.48688,0.27095 6.19532,0.609375 l 0.10156,32.906252"
       style="font-size:208px;font-variant:normal;font-weight:bold;font-stretch:normal;letter-spacing:-2.24000001px;font-family:DejaVu Sans;-inkscape-font-specification:DejaVu Sans Bold;fill:#cccccc"
       id="path3169" />
    <path
       d="m 906.5309,82.777176 36.35937,0 0,113.750004 -36.35937,0 0,-113.750004 m 0,-44.28125 36.35937,0 0,29.65625 -36.35937,0 0,-29.65625"
       style="font-size:208px;font-variant:normal;font-weight:bold;font-stretch:normal;letter-spacing:-2.24000001px;font-family:DejaVu Sans;-inkscape-font-specification:DejaVu Sans Bold;fill:#cccccc"
       id="path3171" />
    <path
       d="m 1067.705,86.331863 0,29.656247 c -4.9428,-3.38533 -9.9194,-5.89054 -14.9297,-7.51562 -4.9428,-1.62491 -10.0886,-2.43741 -15.4375,-2.4375 -10.1563,9e-5 -18.0782,2.97925 -23.7656,8.9375 -5.6199,5.8907 -8.4298,14.15111 -8.4297,24.78125 -1e-4,10.63025 2.8098,18.92452 8.4297,24.88281 5.6874,5.89065 13.6093,8.83596 23.7656,8.83594 5.6874,2e-5 11.0702,-0.84633 16.1484,-2.53906 5.1458,-1.69269 9.8853,-4.19789 14.2188,-7.51563 l 0,29.75781 c -5.6876,2.09896 -11.4767,3.65625 -17.3672,4.67188 -5.823,1.08333 -11.6798,1.625 -17.5703,1.625 -20.5157,0 -36.56257,-5.2474 -48.14065,-15.74219 -11.57814,-10.56248 -17.3672,-25.22132 -17.36719,-43.97656 -1e-5,-18.75513 5.78905,-33.38012 17.36719,-43.875002 11.57808,-10.562388 27.62495,-15.843633 48.14065,-15.84375 5.9582,1.17e-4 11.815,0.541783 17.5703,1.625 5.8228,1.015739 11.6119,2.573029 17.3672,4.671875"
       style="font-size:208px;font-variant:normal;font-weight:bold;font-stretch:normal;letter-spacing:-2.24000001px;font-family:DejaVu Sans;-inkscape-font-specification:DejaVu Sans Bold;fill:#cccccc"
       id="path3173" />
    <path
       d="m 1095.8322,152.24593 0,-69.468754 36.5625,0 0,11.375 c -10e-5,6.161554 -0.034,13.914154 -0.1016,23.257814 -0.068,9.27611 -0.1016,15.47142 -0.1016,18.58594 0,9.14067 0.237,15.74223 0.711,19.80468 0.4739,3.99483 1.2864,6.90629 2.4375,8.73438 1.4895,2.36982 3.4192,4.19794 5.789,5.48437 2.4375,1.28649 5.2135,1.92972 8.3282,1.92969 7.5832,3e-5 13.5416,-2.91143 17.875,-8.73437 4.3332,-5.82288 6.4999,-13.91402 6.5,-24.27344 l 0,-56.164064 36.3593,0 0,113.750004 -36.3593,0 0,-16.45313 c -5.4845,6.63543 -11.3074,11.54428 -17.4688,14.72656 -6.0938,3.11459 -12.8308,4.67188 -20.2109,4.67188 -13.1355,0 -23.1563,-4.02865 -30.0625,-12.08594 -6.8386,-8.05727 -10.2578,-19.7708 -10.2578,-35.14062"
       style="font-size:208px;font-variant:normal;font-weight:bold;font-stretch:normal;letter-spacing:-2.24000001px;font-family:DejaVu Sans;-inkscape-font-specification:DejaVu Sans Bold;fill:#cccccc"
       id="path3175" />
    <path
       d="m 1243.0922,38.495926 36.3594,0 0,158.031254 -36.3594,0 0,-158.031254"
       style="font-size:208px;font-variant:normal;font-weight:bold;font-stretch:normal;letter-spacing:-2.24000001px;font-family:DejaVu Sans;-inkscape-font-specification:DejaVu Sans Bold;fill:#cccccc"
       id="path3177" />
    <path
       d="m 1363.3365,145.33968 c -7.5834,5e-5 -13.3047,1.2865 -17.1641,3.85937 -3.7917,2.57296 -5.6875,6.36463 -5.6875,11.375 0,4.6042 1.5234,8.22659 4.5704,10.86719 3.1145,2.57294 7.414,3.85939 12.8984,3.85937 6.8385,2e-5 12.5937,-2.43747 17.2656,-7.3125 4.6718,-4.94267 7.0077,-11.10412 7.0078,-18.48437 l 0,-4.16406 -18.8906,0 m 55.5547,-13.71094 0,64.89844 -36.6641,0 0,-16.85938 c -4.8751,6.90626 -10.3594,11.95053 -16.4531,15.13281 -6.0938,3.11459 -13.5079,4.67188 -22.2422,4.67188 -11.7813,0 -21.362,-3.41927 -28.7422,-10.25781 -7.3125,-6.90624 -10.9687,-15.84373 -10.9687,-26.8125 0,-13.3385 4.5703,-23.12234 13.7109,-29.35157 9.2083,-6.22909 23.6302,-9.34367 43.2656,-9.34375 l 21.4297,0 0,-2.84375 c -10e-5,-5.75512 -2.2683,-9.95304 -6.8047,-12.59375 -4.5365,-2.70824 -11.612,-4.0624 -21.2265,-4.0625 -7.7865,10e-5 -15.0313,0.77874 -21.7344,2.33594 -6.7032,1.55738 -12.9323,3.89332 -18.6875,7.00781 l 0,-27.726559 c 7.7864,-1.895721 15.6067,-3.317594 23.4609,-4.265625 7.8542,-1.015509 15.7083,-1.523321 23.5625,-1.523438 20.5156,1.17e-4 35.3098,4.062613 44.3829,12.1875 9.1405,8.057392 13.7108,21.192792 13.7109,39.406252"
       style="font-size:208px;font-variant:normal;font-weight:bold;font-stretch:normal;letter-spacing:-2.24000001px;font-family:DejaVu Sans;-inkscape-font-specification:DejaVu Sans Bold;fill:#cccccc"
       id="path3179" />
    <path
       d="m 1535.1746,113.75374 c -3.1824,-1.4895 -6.3646,-2.57283 -9.5468,-3.25 -3.1147,-0.74471 -6.2631,-1.1171 -9.4454,-1.11719 -9.3438,9e-5 -16.5547,3.01311 -21.6328,9.03906 -5.0104,5.95841 -7.5156,14.5235 -7.5156,25.69532 l 0,52.40625 -36.3594,0 0,-113.750004 36.3594,0 0,18.687504 c 4.6718,-7.447818 10.0208,-12.86448 16.0469,-16.250004 6.0937,-3.45301 13.3723,-5.179571 21.8359,-5.179688 1.2187,1.17e-4 2.539,0.06782 3.961,0.203125 1.4217,0.06782 3.4868,0.27095 6.1953,0.609375 l 0.1015,32.906252"
       style="font-size:208px;font-variant:normal;font-weight:bold;font-stretch:normal;letter-spacing:-2.24000001px;font-family:DejaVu Sans;-inkscape-font-specification:DejaVu Sans Bold;fill:#cccccc"
       id="path3181" />
  </g>
  <text
     xml:space="preserve"
     style="font-style:normal;font-weight:normal;line-height:0%;font-family:sans-serif;letter-spacing:0px;word-spacing:0px;fill:#000000;fill-opacity:1;stroke:none"
     x="-541.3114"
     y="204.99367"
     id="text3053"><tspan
       sodipodi:role="line"
       id="tspan3055"
       x="-541.3114"
       y="204.99367"
       style="font-size:32px;line-height:1.25;font-family:sans-serif"> </tspan></text>
  <text
     xml:space="preserve"
     style="font-style:normal;font-weight:normal;line-height:0%;font-family:sans-serif;letter-spacing:0px;word-spacing:0px;fill:#000000;fill-opacity:1;stroke:none"
     x="261.42374"
     y="518.46185"
     id="text3006"><tspan
       sodipodi:role="line"
       id="tspan3008"
       x="261.42374"
       y="518.46185"
       style="font-size:32px;line-height:1.25;font-family:sans-serif"> </tspan></text>
</svg>
